<?xml version="1.0" encoding="utf-8"?>
<!-- Generator: Adobe Illustrator 21.0.0, SVG Export Plug-In . SVG Version: 6.00 Build 0)  -->
<svg version="1.1" id="Layer_1" xmlns="http://www.w3.org/2000/svg" xmlns:xlink="http://www.w3.org/1999/xlink" x="0px" y="0px"
	 width="1400px" height="980px" viewBox="0 0 1400 980" style="enable-background:new 0 0 1400 980;" xml:space="preserve">
<style type="text/css">
	.st0{fill-rule:evenodd;clip-rule:evenodd;fill:#ED1D33;}
	.st1{fill-rule:evenodd;clip-rule:evenodd;fill:#FAF7B4;}
	.st2{fill-rule:evenodd;clip-rule:evenodd;fill:#FAAE36;}
	.st3{fill-rule:evenodd;clip-rule:evenodd;fill:#A8D7B5;}
	.st4{fill-rule:evenodd;clip-rule:evenodd;fill:#322133;}
	.st5{fill-rule:evenodd;clip-rule:evenodd;fill:#F5C256;}
	.st6{fill-rule:evenodd;clip-rule:evenodd;fill:#F29A36;}
	.st7{fill-rule:evenodd;clip-rule:evenodd;fill:#E2E2E2;}
	.st8{fill-rule:evenodd;clip-rule:evenodd;fill:#D6CFCF;}
	.st9{fill-rule:evenodd;clip-rule:evenodd;fill:#F7F7A8;}
	.st10{fill-rule:evenodd;clip-rule:evenodd;fill:#FCFCC2;}
	.st11{fill-rule:evenodd;clip-rule:evenodd;fill:#F8AE36;}
	.st12{fill-rule:evenodd;clip-rule:evenodd;fill:#F5BC5F;}
	.st13{fill-rule:evenodd;clip-rule:evenodd;fill:#F0504D;}
	.st14{fill-rule:evenodd;clip-rule:evenodd;fill:#F13430;}
	.st15{fill-rule:evenodd;clip-rule:evenodd;fill:#FF8A2C;}
	.st16{fill-rule:evenodd;clip-rule:evenodd;fill:#E9751A;}
	.st17{fill-rule:evenodd;clip-rule:evenodd;fill:#FFE9CD;}
	.st18{fill-rule:evenodd;clip-rule:evenodd;fill:#EBD5B3;}
	.st19{fill-rule:evenodd;clip-rule:evenodd;fill:#FAFAAF;}
	.st20{fill-rule:evenodd;clip-rule:evenodd;fill:#FEAD38;}
	.st21{fill-rule:evenodd;clip-rule:evenodd;fill:#EDA034;}
	.st22{fill-rule:evenodd;clip-rule:evenodd;fill:#E91D36;}
	.st23{fill-rule:evenodd;clip-rule:evenodd;fill:#C71E31;}
	.st24{fill-rule:evenodd;clip-rule:evenodd;fill:#60A97C;}
	.st25{fill-rule:evenodd;clip-rule:evenodd;fill:#86D1A3;}
	.st26{fill-rule:evenodd;clip-rule:evenodd;fill:#FDFAB3;}
	.st27{fill-rule:evenodd;clip-rule:evenodd;fill:#FFFED4;}
	.st28{fill-rule:evenodd;clip-rule:evenodd;fill:#E0972A;}
	.st29{fill-rule:evenodd;clip-rule:evenodd;fill:#D68D20;}
	.st30{fill-rule:evenodd;clip-rule:evenodd;fill:#F9D865;}
	.st31{fill-rule:evenodd;clip-rule:evenodd;fill:#F0CB48;}
	.st32{fill-rule:evenodd;clip-rule:evenodd;fill:#DD7A1C;}
	.st33{fill-rule:evenodd;clip-rule:evenodd;fill:#CC6B10;}
	.st34{fill-rule:evenodd;clip-rule:evenodd;fill:#FEFDFE;}
	.st35{fill-rule:evenodd;clip-rule:evenodd;fill:#E6E6E6;}
	.st36{fill-rule:evenodd;clip-rule:evenodd;fill:#D8571D;}
</style>
<g>
	<path class="st0" d="M127.5,129.2c-48.8,11.5-42.1,53.7-42.1,89.4c0,20.7-1.4,119,1.1,131c10.5,49.3,61.4,41.6,91.3,41.6
		c28.1,0,109.3,3.7,131.3-1.5c16.3-3.9,29.7-15.9,35.5-29.7c7.4-17.7,4.2-101.1,4.2-125.5c0-40.1,8.9-82.6-29.8-101.5
		c-17.1-8.4-41.6-5.2-61.8-5.2C230.3,127.7,147.7,124.4,127.5,129.2z"/>
	<path class="st1" d="M127.5,571c-48.8,11.5-42.1,53.7-42.1,89.4c0,20.7-1.4,119,1.1,131c10.5,49.3,61.4,41.6,91.3,41.6
		c28.1,0,109.3,3.7,131.3-1.5c16.3-3.9,29.7-15.9,35.5-29.7c7.4-17.7,4.2-101.1,4.2-125.5c0-40.1,8.9-82.6-29.8-101.5
		c-17.1-8.4-41.6-5.2-61.8-5.2C230.3,569.6,147.7,566.3,127.5,571z"/>
	<path class="st2" d="M460.6,136.8c-48.8,11.5-42.1,53.7-42.1,89.4c0,20.7-1.4,119,1.1,131c10.5,49.3,61.4,41.6,91.3,41.6
		c28.1,0,109.3,3.7,131.3-1.5c16.3-3.9,29.7-15.9,35.5-29.7c7.4-17.7,4.2-101.1,4.2-125.5c0-40.1,8.9-82.6-29.8-101.5
		c-17.1-8.4-41.6-5.2-61.8-5.2C563.5,135.3,480.9,132,460.6,136.8z"/>
	<path class="st3" d="M460.6,578.6c-48.8,11.5-42.1,53.7-42.1,89.4c0,20.7-1.4,119,1.1,131c10.5,49.3,61.4,41.6,91.3,41.6
		c28.1,0,109.3,3.7,131.3-1.5c16.3-3.9,29.7-15.9,35.5-29.7c7.4-17.7,4.2-101.1,4.2-125.5c0-40.1,8.9-82.6-29.8-101.5
		c-17.1-8.4-41.6-5.2-61.8-5.2C563.5,577.2,480.9,573.9,460.6,578.6z"/>
	<path class="st4" d="M773.9,136.8c-48.8,11.5-42.1,53.7-42.1,89.4c0,20.7-1.4,119,1.1,131c10.5,49.3,61.4,41.6,91.3,41.6
		c28.1,0,109.3,3.7,131.3-1.5c16.3-3.9,29.7-15.9,35.5-29.7c7.4-17.7,4.2-101.1,4.2-125.5c0-40.1,8.9-82.6-29.8-101.5
		c-17.1-8.4-41.6-5.2-61.8-5.2C876.8,135.3,794.2,132,773.9,136.8z"/>
	<path class="st0" d="M773.9,578.6c-48.8,11.5-42.1,53.7-42.1,89.4c0,20.7-1.4,119,1.1,131c10.5,49.3,61.4,41.6,91.3,41.6
		c28.1,0,109.3,3.7,131.3-1.5c16.3-3.9,29.7-15.9,35.5-29.7c7.4-17.7,4.2-101.1,4.2-125.5c0-40.1,8.9-82.6-29.8-101.5
		c-17.1-8.4-41.6-5.2-61.8-5.2C876.8,577.2,794.2,573.9,773.9,578.6z"/>
	<path class="st3" d="M1092.7,148.2c-48.8,11.5-42.1,53.7-42.1,89.4c0,20.7-1.4,119,1.1,131c10.5,49.3,61.4,41.6,91.3,41.6
		c28.1,0,109.3,3.7,131.3-1.5c16.3-3.9,29.7-15.9,35.5-29.7c7.4-17.7,4.2-101.1,4.2-125.5c0-40.1,8.9-82.6-29.8-101.5
		c-17.1-8.4-41.6-5.2-61.8-5.2C1195.6,146.7,1113,143.4,1092.7,148.2z"/>
	<path class="st4" d="M1092.7,590c-48.8,11.5-42.1,53.7-42.1,89.4c0,20.7-1.4,119,1.1,131c10.5,49.3,61.4,41.6,91.3,41.6
		c28.1,0,109.3,3.7,131.3-1.5c16.3-3.9,29.7-15.9,35.5-29.7c7.4-17.7,4.2-101.1,4.2-125.5c0-40.1,8.9-82.6-29.8-101.5
		c-17.1-8.4-41.6-5.2-61.8-5.2C1195.6,588.6,1113,585.3,1092.7,590z"/>
	<g>
		<path class="st5" d="M204.7,309.6c4.7,1.5,3,2.2,6.1,7.4l3.7-6.8c6.9-1.3,0-2.3,6.5,3.1l2.3,4.7l6.9-9.1l5.4,7.9
			c5.8-21.9,0.7-24.2,25.7-47.5c18.1-16.8,20.5-31,21.3-48.5c1.8-39-39.6-72.8-73.6-63.5c-24.3-9.1-93.2,57.7-33.2,113.9
			c22.7,21.3,17.7,29.1,23,45.5C201.6,311.8,201.2,310.7,204.7,309.6z"/>
		<path class="st6" d="M204.7,309.6c4.7,1.5,3,2.2,6.1,7.4l3.7-6.8c1.9-0.3,2.7-0.7,3.1-0.9V156c-2.9,0.2-5.7,0.7-8.5,1.4
			c-24.3-9.1-93.2,57.7-33.2,113.9c22.7,21.3,17.7,29.1,23,45.5C201.6,311.8,201.2,310.7,204.7,309.6z"/>
		<path class="st7" d="M230.3,308.9l-6.9,9.1l-2.3-4.7c-6.6-5.4,0.3-4.4-6.5-3.1l-3.7,6.8c-3-5.3-1.4-6-6.1-7.4l-0.6,37.2
			c-29.2,8.1-8.5,43.7,12.5,20.9c8.3,8.1,17.6,12.1,24.6,0.1c6.6-11.4-4-15.9-13.2-22C229.8,333.7,226.2,320.8,230.3,308.9z"/>
		<path class="st8" d="M218.6,311c-2-2.6,1.5-1.8-4.1-0.7l-3.7,6.8c-3-5.3-1.4-6-6.1-7.4l-0.6,37.2c-29.2,8.1-8.5,43.7,12.5,20.9
			c0.6,0.6,1.3,1.2,1.9,1.8V311z"/>
	</g>
	<g>
		<path class="st9" d="M800.5,280.9c4.5-10.7,11.5-22,16.6-31.9c1.3-2.6,2.8-6.2,4.7-9c3.6-5.3,0.4-1.5,3.3-4
			c6.6-5.7,12.9-2.8,14.4-11.3c1.5-8.7-5.4-4.9-0.1-17.1l20.5-37.1c3-4,0.9-3.1,6-4.9l3.4,7.2c13.6,31.8-0.7,8.5,4.2,30.3
			c17,6.4,8.2-8.6,32.4,38.3c5.9,11.4,22.5,37.9,24.6,47.8c-16.3,1.5-15.9,10.4-30,13.9c-17.5,4.3-21.8-4.4-35.2-6.8
			c-22.9,1.5-22.5,15.2-42,12.8C810.7,307.4,799.2,294.5,800.5,280.9z"/>
		<path class="st10" d="M800.5,280.9c4.5-10.7,11.5-22,16.6-31.9c1.3-2.6,2.8-6.2,4.7-9c3.6-5.3,0.4-1.5,3.3-4
			c6.6-5.7,12.9-2.8,14.4-11.3c1.5-8.7-5.4-4.9-0.1-17.1l20.5-37.1c2.7-3.6,1.3-3.2,4.8-4.4v130.2c-22.1,1.8-22,15.1-41.2,12.8
			C810.7,307.4,799.2,294.5,800.5,280.9z"/>
		<path class="st11" d="M800.5,280.9c-1.3,13.6,10.2,26.4,22.9,28c19.5,2.4,19.1-11.3,42-12.8c13.4,2.5,17.6,11.1,35.2,6.8
			c14.1-3.4,13.7-12.4,30-13.9l17.2,29.8c5.6,0.2,8.9-1.3,14.6,0.9l0.3,9.8c-5.6,4.6-8.4,8.8-15.4,13c-4.4,2.7-12.7,6.6-18.6,8.9
			c-14,5.7-30.3,8.3-46.4,9.8c-4.2,0.6-9.3,0.9-14.8,0.9l14.8-0.9l-18.3,1.1l1.4-66.3l-1.4,66.1c-37.7-0.3-95.5-11.8-99-40.6
			c0.6-0.4,1.4-0.7,1.9-0.9l13.5-2.9L800.5,280.9z"/>
		<path class="st12" d="M800.5,280.9c-1.3,13.6,10.2,26.4,22.9,28c18.5,2.2,21.9-10,41.6-12.5v65.8c-37.7-0.6-96.5-12.3-100-40.6
			c0.6-0.4,1.4-0.7,1.9-0.9l13.5-2.9L800.5,280.9z"/>
		<g>
			<path class="st13" d="M858.2,242.1c-12.8-6.1-3.7-24.5,9.2-18.7C878.8,228.5,871.2,248.3,858.2,242.1z"/>
			<path class="st14" d="M858.2,242.1c-11.2-5.4-5.6-20.2,4.7-19.8v21C861.4,243.2,859.8,242.9,858.2,242.1z"/>
		</g>
		<g>
			<path class="st13" d="M825.4,281.6c-12.8-6.1-3.7-24.5,9.2-18.7C846,268,838.5,287.8,825.4,281.6z"/>
			<path class="st14" d="M825.4,281.6c-11.2-5.4-5.6-20.2,4.7-19.8v21C828.7,282.7,827.1,282.4,825.4,281.6z"/>
		</g>
		<g>
			<path class="st13" d="M895.6,282.6c-12.8-6.1-3.7-24.5,9.2-18.7C916.2,269,908.7,288.8,895.6,282.6z"/>
			<path class="st14" d="M895.6,282.6c-11.2-5.4-5.6-20.2,4.7-19.8v21C898.9,283.7,897.3,283.4,895.6,282.6z"/>
		</g>
	</g>
	<g>
		<g>
			<path class="st15" d="M1213,757.5c2.8-3.4,2.3-6.1,6.9-8.5c13.9-7.5,6,0.5,13-18.2c2.1-5.5,3.3-6.4,7.4-9
				c6-3.8,7.1-16.4,4.5-24.8c-1.3-4.3-2.9-6.8-3.7-11.9c-0.8-5.1,0.9-12.6-0.7-15.8c-2-4.1-5.2-2.4-7.2-8.3
				c-1.7-4.9-0.3-7.9-3.7-11.9c-11.9-14.3-12.7-8-19.9-12.2c-7.4-4.4-3.9-13.8-14.2-17c-6.4-2-20.2-7.7-26.4-3
				c-4.3,0.1-6.7,3.6-8.6,7.8c-3.3,3.8-2.8,9.4-7.9,12.4c-6.6,3.9-7.3-1.9-18.2,11.2c-3.1,3.7-1.8,6.4-3.4,10.9
				c-1.9,5.4-4.7,3.8-6.6,7.6c-1.5,3,0.1,9.8-0.7,14.5c-0.7,4.7-2.1,6.9-3.3,10.9c-2.3,7.8-1.4,19.3,4.1,22.8
				c3.7,2.3,4.9,3.2,6.7,8.2c6.4,17.2-0.8,9.8,11.9,16.7c0.2,0.1,0.4,0.2,0.5,0.3c0.8,0.7,1.6,1.5,2.6,2.2c1.1,1.5,1.6,3.2,3.2,5.2
				c2.6,5.9,2.1,8.5,6.7,10.7c1.1,1.2,2,2.4,1.8,7.4c-0.2,5.8-3.1,7.2-1.8,13.7c3.5,3.2,8.1,4,11,6.3c4.3,3.4-0.3,8.3,6.9,10.8
				c2.3,0.2,1.1-13.4,0.9-15.8c7,2.9,7.9,1.7,9.3,0.6c0.2,1.2,0.5,2,1,2c2.2-0.8,3.2-1.8,3.7-2.9c0.2,0,0.4,0.1,0.7,0.1
				c0.6,6.1-1.8,7.8-1.5,13.7c5.1-1.8,10,1.8,13.4-5.7c3.8-8.3,0.5-10.4,0.7-17.8C1211.1,767.8,1209.7,765.1,1213,757.5z"/>
			<path class="st16" d="M1181.7,615.9c-5.3-1.2-9.4-1.7-12.7,0.8c-4.3,0.1-6.7,3.6-8.6,7.8c-3.3,3.8-2.8,9.4-7.9,12.4
				c-6.6,3.9-7.3-1.9-18.2,11.2c-3.1,3.7-1.8,6.4-3.4,10.9c-1.9,5.4-4.7,3.8-6.6,7.6c-1.5,3,0.1,9.8-0.7,14.5
				c-0.7,4.7-2.1,6.9-3.3,10.9c-2.3,7.8-1.4,19.3,4.1,22.8c3.7,2.3,4.9,3.2,6.7,8.2c6.4,17.2-0.8,9.8,11.9,16.7
				c0.2,0.1,0.4,0.2,0.5,0.3c0.8,0.7,1.6,1.5,2.6,2.2c1.1,1.5,1.6,3.2,3.2,5.2c2.6,5.9,2.1,8.5,6.7,10.7c1.1,1.2,2,2.4,1.8,7.4
				c-0.2,5.8-3.1,7.2-1.8,13.7c3.5,3.2,8.1,4,11,6.3c4.3,3.4-0.3,8.3,6.9,10.8c2.3,0.2,1.1-13.4,0.9-15.8c5,2.1,5.6,2,6.8,1.5V615.9
				z"/>
		</g>
		<g>
			<path class="st17" d="M1200.8,841.7c0.5-8.4-5.3-12.4-9.3-19.6c-10.1-18.1-0.4-27.2-1.9-41.9c-8.3-1.4-3.1,5-14.7,0.2
				c2,28.6-1.1,29.1-17,53c-4.4,6.6-2.4,13.7,4.9,15.9c9.8,3,14.1-4.1,18.8-7.8c3.3,2.9,3.4,7,9.2,7.3
				C1196.3,849.1,1199,845.2,1200.8,841.7z"/>
			<path class="st18" d="M1181.6,782.3c-1.3,0.1-3.2-0.4-6.7-1.8c2,28.6-1.1,29.1-17,53c-4.4,6.6-2.4,13.7,4.9,15.9
				c9.8,3,14.1-4.1,18.8-7.8l0.1,0V782.3z"/>
		</g>
	</g>
	<g>
		<g>
			<path class="st10" d="M862.1,619.1c-32.2-1.7-44.7,43-56.3,52.6c-10.6,8.8-23.5,10.6-30.5,22.8c-9.6,16.9,0.7,31.9,1.4,45.7
				c11,6.6,7.5,16.2,41.2,29.8c13.2,5.3,13.2,4.6,23,13.3c5.2,4.6,14.3,12,22.4,13.1c3.4,3.6,4.8,5.1,15.5,6.6
				c17.5,2.5,33.4-1.3,45.9-12.4c20.2-17.9,15.7-30.6,7.7-56.2C970.8,727.6,973.2,544.2,862.1,619.1z"/>
			<path class="st19" d="M862.1,619.1c-32.2-1.7-44.7,43-56.3,52.6c-10.6,8.8-23.5,10.6-30.5,22.8c-9.6,16.9,0.7,31.9,1.4,45.7
				c11,6.6,7.5,16.2,41.2,29.8c13.2,5.3,13.2,4.6,23,13.3c5.2,4.6,14.3,12,22.4,13.1c3.3,3.5,4.7,5.1,14.6,6.5V609.8
				C873,612.3,867.7,615.4,862.1,619.1z"/>
		</g>
		<g>
			<path class="st11" d="M877,735.4c18.8,0,34.1-15.3,34.1-34.1c0-18.8-15.3-34.1-34.1-34.1c-18.8,0-34.1,15.3-34.1,34.1
				C842.9,720.1,858.2,735.4,877,735.4z"/>
			<path class="st11" d="M877,735.4c18.8,0,34.1-15.3,34.1-34.1c0-18.8-15.3-34.1-34.1-34.1c-18.8,0-34.1,15.3-34.1,34.1
				C842.9,720.1,858.2,735.4,877,735.4z"/>
			<path class="st12" d="M877,667.2l-0.5,0v68.2l0.5,0c18.8,0,34.1-15.3,34.1-34.1C911.1,682.4,895.8,667.2,877,667.2z"/>
		</g>
	</g>
	<g>
		<path class="st20" d="M451.7,753.7c-6.9,27.7,14.2,30.6,43.1,30.6l122,0c31.1,0,41.8-2.1,40.6-30.6H451.7L451.7,753.7z
			 M448.9,703.4c15.3,2.1,203,6.9,212.2-3c13.4-14.4-10.6-39.8-20.3-47.3C587.6,611.5,427.1,628.1,448.9,703.4z"/>
		<path class="st21" d="M451.7,753.7c-6.9,27.7,14.2,30.6,43.1,30.6l64.8,0v-30.6H451.7L451.7,753.7z M559.6,630.9v75.6
			c-50.7-0.2-102.9-2-110.6-3C434.6,654,498.7,629.9,559.6,630.9z"/>
		<path class="st22" d="M472.7,724c-0.9,0.6-2.6-0.2-3.1,1.1c-111.7,34.9,171.6,27.7,185.8,18.4c-1.8-11.7,3.5-17.2-17.9-15.3
			c-15,1.3-7,6.1-24.3,11.9c-29.8-4.6-17.8-23-52.3-3.4c22.4-30.2,34.3,1.3,52.3-0.5c13.6-5.7,9.4-8.5,20.8-11
			c14.2-3.1,11.3,2.9,28.9-2.1c-2.8-21.9-23.2-13.9-85.2-13.9l-118.1,0C425.5,709.1,432.4,723.7,472.7,724z"/>
		<path class="st23" d="M472.7,724c-0.9,0.6-2.6-0.2-3.1,1.1c-69.6,21.7,14.1,27.1,90.6,25.9V709l-100.4,0
			C425.5,709.1,432.4,723.7,472.7,724z"/>
	</g>
	<g>
		<path class="st24" d="M612.8,293.1l-13.1,89.3c-19.6-0.1-84.2,4.1-96.1-2c-6.1-14.5-11.6-68.6-14.3-89.5
			C495.6,292.7,607.5,295.3,612.8,293.1z"/>
		<path class="st25" d="M612.8,293.1l-13.1,89.3c-10.1-0.1-32,1-52.6,1.3v-90.3C577.9,294.1,610,294.3,612.8,293.1z"/>
		<path class="st26" d="M475.5,265.7c5.2-11.6,5.1,0,3.1-14.5c-2-14.7-1.7-30.9,17.9-39.3c8.1-3.5,10.1-1.5,17.2-2.8
			c14.7-2.6,19.2-22.1,45.5-11.7c14.2,5.6,11.4,11.8,20.4,19.4c19.9-7.4,39.1-0.8,46.5,15.9c5.6,12.8,2.3,15.6-0.1,27
			c-2.5,12,5.3,15.2,2.4,29.2c-4.8,23.4-33.9,37.4-53.1,19.4c-6.6-6.2-2.8-5.8-11.7-7.3c-6-1-8.7,0.7-16.2-1.4
			c-6.5-1.8-6.3-3.3-13.1-5.1C523.2,327.9,455.1,310.9,475.5,265.7z"/>
		<path class="st27" d="M547.5,194.5c3.4,0.3,7.3,1.2,11.8,3c14.2,5.6,11.4,11.8,20.4,19.4c19.9-7.4,39.1-0.8,46.5,15.9
			c5.6,12.8,2.3,15.6-0.1,27c-2.5,12,5.3,15.2,2.4,29.2c-4.8,23.4-33.9,37.4-53.1,19.4c-6.6-6.2-2.8-5.8-11.7-7.3
			c-6-1-8.7,0.7-16.2-1.4l-0.1,0V194.5z"/>
		<g>
			<path class="st14" d="M547.6,209.3c9.1,0,16.5-7.4,16.5-16.5c0-9.1-7.4-16.5-16.5-16.5c-9.1,0-16.5,7.4-16.5,16.5
				C531.1,201.9,538.5,209.3,547.6,209.3z"/>
			<path class="st13" d="M547.6,176.3l-0.2,0v33l0.2,0c9.1,0,16.5-7.4,16.5-16.5C564.1,183.7,556.7,176.3,547.6,176.3z"/>
		</g>
	</g>
	<g>
		<path class="st28" d="M285.8,677c-15-7.2-109.4-20.4-158,4.9c-50.4,20.8-14.7,39.8,17.3,52.9c36.4,10.3,86,11.6,123,5.3
			c18.5-3.2,82.6-19,59.4-47.1c-5.3-6.5-12.9-10.4-20.3-13.8C295.7,673.7,295.4,672.4,285.8,677z"/>
		<path class="st29" d="M212.2,667.1c-29.7-0.4-61.9,3.1-84.4,14.8c-50.4,20.8-14.7,39.8,17.3,52.9c19.8,5.6,43.6,8.6,67.1,9.1
			V667.1z"/>
		<path class="st30" d="M286.4,677c-4.7-3.1-20.4-16.7-36.4-8.3l1.4,43c1.1,6.2,2.3,5.9,2.2,13.3c-10.2-8.7-10.6-18.4-12.1-28.4
			l-0.8-32c-10.1-1.9-17.7-3.5-27.7,3.5c-1.1,6.5-0.6,22.2,0.8,28.7c1.4,7,4.7,23.2,4.6,29.6c-20.9-22.1-11.2-50.4-16.9-64.2
			c-12.7,3.5-16.9-2.1-30.2,10.1l12.5,52.3c-15.9-13.9-19.8-43.7-19.1-55.9c-21.1-0.3-24.4,6.9-30.2,10.7
			c0.8,13.2,6.4,28.8,11.8,42.7c-13.3-4.5-19.5-36.3-19.4-43.5c-50.4,20.8-14.1,46.8,19.1,56.2c36.4,10.3,86,11.6,123,5.3
			c18.5-3.2,82.6-19,59.4-47.1c-5.3-6.5-12.9-10.4-20.3-13.8C296.3,673.7,295.9,672.4,286.4,677z"/>
		<path class="st31" d="M212.2,718.6c-12.8-20.6-5.8-44.2-10.9-56.4c-12.7,3.5-16.9-2.1-30.2,10.1l12.5,52.3
			c-15.9-13.9-19.8-43.7-19.1-55.9c-21.1-0.3-24.4,6.9-30.2,10.7c0.8,13.2,6.4,28.8,11.8,42.7c-13.3-4.5-19.5-36.3-19.4-43.5
			c-50.4,20.8-14.1,46.8,19.1,56.2c19.7,5.6,43.2,8.5,66.5,9.1V718.6z"/>
	</g>
	<g>
		<path class="st32" d="M1114.2,180.8c-7.1,3.9-15.4,11.9-19.5,21.9c-11.2,27.7,9.7,55,27.3,74.3c42.5,46.8,64.3,24.3,81.1,45.6
			c4.2,5.3,10.7,18.9,17,16l3.5-1.8c0.4-2.3,4-6.8,5.6-8.9c2.7-3.5,4.6-5.1,7.9-5.7c1.3-1.1,14-7.1,10.6-15.4
			c-2.5-6.2-6-0.8-16.1-14.4c-15.6-21.1-12-44.8-15-55.1c-2-7-4-11.1-7.8-17.6c-6-10.3-16.7-22.2-28.9-30.4c-2.6,3.2-4.5,3-6.7,7.9
			c-4.9,10.9-12.4,3.2-26.6,3.3c-8.2,0.1-8.7,1.5-15.8-8C1124.8,184.3,1123.5,185.2,1114.2,180.8z"/>
		<path class="st33" d="M1106.6,186.2c-4.8,4.2-9.3,9.9-11.9,16.5c-11.2,27.7,9.7,55,27.3,74.3c42.5,46.8,64.3,24.3,81.1,45.6
			c4.2,5.3,10.7,18.9,17,16l3.5-1.8c0.4-2.3,4-6.8,5.6-8.9c0.5-0.7,1-1.2,1.4-1.8L1106.6,186.2z"/>
		<path class="st34" d="M1223.6,336.7c5.3,5.5,13.8,13.8,15.5,19.7c2.8,9.9-8.8,11.5-3.1,25.9c7.3,18.3,22.9,13.6,29.4,2.4
			c3.9-6.6,2.2-9,2.9-14.6c9.9,4.9,18.5,6.2,21-7c2-10.2-6.6-13.5-16.8-14.5c-13.2-1.3-11.2,3.4-21.1-8c-5.2-6-10-12.5-14.4-18.4
			c-3.3,0.6-5.1,2.1-7.9,5.7C1227.6,329.9,1224,334.4,1223.6,336.7z"/>
		<path class="st35" d="M1223.6,336.7c5.3,5.5,13.8,13.8,15.5,19.7c2.8,9.9-8.8,11.5-3.1,25.9c7.3,18.3,22.9,13.6,29.4,2.4
			c3.7-6.4,2.3-8.8,2.8-14l-38.1-44c-0.3,0.4-0.6,0.7-0.9,1.2C1227.6,329.9,1224,334.4,1223.6,336.7z"/>
		<path class="st36" d="M1114.2,180.8c9.3,4.4,10.6,3.5,16.6,11.6c7.1,9.6,7.6,8.1,15.8,8c14.3-0.1,21.7,7.5,26.6-3.3
			c2.2-4.9,4.1-4.7,6.7-7.9c-8.3-4.1-26,2.3-33.8,2.9c-12.1,0.9-9.6-4.8-14.2-8.8C1127.2,179.1,1118.5,177.9,1114.2,180.8z"/>
	</g>
</g>
</svg>
